<?xml version="1.0" encoding="utf-8"?>
<?xml-stylesheet type="text/xsl" href="rss1.xsl"?>
<rss version="2.0" xmlns:atom="http://www.w3.org/2005/Atom" xmlns:content="http://purl.org/rss/1.0/modules/content/" xmlns:dc="http://purl.org/dc/elements/1.1/" xmlns:media="http://search.yahoo.com/mrss/">
<channel>
 <title>Getty</title>
 <link>http://www.gettyimg.com/</link>
 <atom:link href="http://www.gettyimg.com/" rel="self" type="application/rss+xml" />

 
                <item>
                <title><![CDATA[【Cinema Center】SERIES - Encantado’s 4K (2160p) GLBO WEB-DL DDP5.1 ATMOS (Português Brasileiro) H.265 (HEVC) DASH - 71GB MEGA]]></title>
                <link><![CDATA[https://sharemania.us/threads/encantado%E2%80%99s-4k-2160p-glbo-web-dl-ddp5-1-atmos-portugu%C3%AAs-brasileiro-h-265-hevc-dash-71gb-mega.241945/]]></link>
                <description><![CDATA[<article>
<blockquote class="messageText SelectQuoteContainer ugc baseHtml">
<span style="font-size: 22px"><b>Encantado’s.S01-S02.2160p.GLBO.WEB-DL.DDP5.1.Atmos.H.265-DASH.mkv (Português Brasileiro | Brazilian Portuguese) | MEGA (71.0 GB) | 2 Temporadas | 23 Episódios | DASH</b></span><br>
<span style="font-size: 18px"><br>
Título: </span><b><span style="font-size: 18px">Encantado’s</span></b><br>
<span style="font-size: 18px"><br>
Ano de lançamento:<b> 2022</b><br>
<br>
Idioma: <b><b>Português (Brasil)</b></b><br>
<br>
Serviço:</span><b><b> <span style="font-size: 18px">GLOBOPLAY (Brasil)</span></b></b><br>
<br>
<div class="ToggleTriggerAnchor bbCodeSpoilerContainer">
<button type="button" class="button bbCodeSpoilerButton ToggleTrigger Tooltip JsOnly" data-target="> .SpoilerTarget"><span>Spoiler: <span class="SpoilerTitle">MediaInfo</span></span></button>
<div class="SpoilerTarget bbCodeSpoilerText"><b><span style="font-size: 22px">Temporada 2</span></b><br>
General<br>
Unique ID : 313732914505469737202596839504856358231 (0xEC06C2EEF3591E6A172F77C42F6A1D57)<br>
Complete name : Encantado’s.S01-S02.2160p.GLBO.WEB-DL.DDP5.1.Atmos.H.265-DASH\Encantado’s.S02E01.Encantado’s.2..o.inimigo.agora.é.outro.2160p.GLBO.WEB-DL.DDP5.1.Atmos.H.265-DASH.mkv<br>
Format : Matroska<br>
Format version : Version 4<br>
File size : 3.77 GiB<br>
Duration : 39 min 4 s<br>
Overall bit rate : 13.8 Mb/s<br>
Frame rate : 23.976 FPS<br>
Encoded date : 2024-04-04 02:43:29 UTC<br>
Writing application : mkvmerge v82.0 ('I'm The President') 64-bit<br>
Writing library : libebml v1.4.5 + libmatroska v1.7.1<br>
<br>
Video<br>
ID : 1<br>
Format : HEVC<br>
Format/Info : High Efficiency Video Coding<br>
Format profile : Main 10@L5@Main<br>
Codec ID : V_MPEGH/ISO/HEVC<br>
Duration : 39 min 4 s<br>
Bit rate : 12.7 Mb/s<br>
Width : 3 840 pixels<br>
Height : 2 160 pixels<br>
Display aspect ratio : 16:9<br>
Frame rate mode : Constant<br>
Frame rate : 23.976 (24000/1001) FPS<br>
Color space : YUV<br>
Chroma subsampling : 4:2:0<br>
Bit depth : 10 bits<br>
Bits/(Pixel*Frame) : 0.064<br>
Stream size : 3.47 GiB (92%)<br>
Title : Portuguese<br>
Language : Portuguese<br>
Default : Yes<br>
Forced : No<br>
Color range : Limited<br>
<br>
Audio #1<br>
ID : 2<br>
Format : E-AC-3 JOC<br>
Format/Info : Enhanced AC-3 with Joint Object Coding<br>
Commercial name : Dolby Digital Plus with Dolby Atmos<br>
Codec ID : A_EAC3<br>
Duration : 39 min 4 s<br>
Bit rate mode : Constant<br>
Bit rate : 448 kb/s<br>
Channel(s) : 6 channels<br>
Channel layout : L R C LFE Ls Rs<br>
Sampling rate : 48.0 kHz<br>
Frame rate : 31.250 FPS (1536 SPF)<br>
Compression mode : Lossy<br>
Stream size : 125 MiB (3%)<br>
Title : Portuguese<br>
Language : Portuguese<br>
Service kind : Complete Main<br>
Default : Yes<br>
Forced : No<br>
Complexity index : 12<br>
Number of dynamic objects : 0<br>
Bed channel count : 12 channels<br>
Bed channel configuration : L R C LFE Ls Rs Lb Rb Tfl Tfr Tbl Tbr<br>
<br>
Audio #2<br>
ID : 3<br>
Format : AAC LC<br>
Format/Info : Advanced Audio Codec Low Complexity<br>
Codec ID : A_AAC-2<br>
Duration : 39 min 4 s<br>
Bit rate : 384 kb/s<br>
Channel(s) : 6 channels<br>
Channel layout : C L R Ls Rs LFE<br>
Sampling rate : 44.1 kHz<br>
Frame rate : 43.066 FPS (1024 SPF)<br>
Compression mode : Lossy<br>
Stream size : 107 MiB (3%)<br>
Title : Portuguese<br>
Language : Portuguese<br>
Default : No<br>
Forced : No<br>
<br>
Audio #3<br>
ID : 4<br>
Format : AAC LC<br>
Format/Info : Advanced Audio Codec Low Complexity<br>
Codec ID : A_AAC-2<br>
Duration : 39 min 4 s<br>
Bit rate : 128 kb/s<br>
Channel(s) : 2 channels<br>
Channel layout : L R<br>
Sampling rate : 44.1 kHz<br>
Frame rate : 43.066 FPS (1024 SPF)<br>
Compression mode : Lossy<br>
Stream size : 35.8 MiB (1%)<br>
Title : Portuguese<br>
Language : Portuguese<br>
Default : No<br>
Forced : No<br>
<br>
Audio #4<br>
ID : 5<br>
Format : AAC LC<br>
Format/Info : Advanced Audio Codec Low Complexity<br>
Codec ID : A_AAC-2<br>
Duration : 39 min 4 s<br>
Bit rate : 128 kb/s<br>
Channel(s) : 2 channels<br>
Channel layout : L R<br>
Sampling rate : 44.1 kHz<br>
Frame rate : 43.066 FPS (1024 SPF)<br>
Compression mode : Lossy<br>
Stream size : 35.8 MiB (1%)<br>
Title : Portuguese<br>
Language : Portuguese<br>
Default : No<br>
Forced : No<br>
<br>
Text #1<br>
ID : 6<br>
Format : UTF-8<br>
Codec ID : S_TEXT/UTF8<br>
Codec ID/Info : UTF-8 Plain Text<br>
Duration : 39 min 4 s<br>
Bit rate : 122 b/s<br>
Frame rate : 0.402 FPS<br>
Count of elements : 942<br>
Stream size : 35.0 KiB (0%)<br>
Title : Portuguese<br>
Language : Portuguese<br>
Default : No<br>
Forced : No<br>
<br>
Text #2<br>
ID : 7<br>
Format : UTF-8<br>
Codec ID : S_TEXT/UTF8<br>
Codec ID/Info : UTF-8 Plain Text<br>
Duration : 39 min 4 s<br>
Bit rate : 122 b/s<br>
Frame rate : 0.414 FPS<br>
Count of elements : 971<br>
Stream size : 35.1 KiB (0%)<br>
Title : Portuguese<br>
Language : Portuguese<br>
Default : No<br>
Forced : No<br>
<br>
<b><span style="font-size: 22px">Temporada 1</span></b><br>
General<br>
Unique ID : 88819156111703518510749915743646353132 (0x42D1F27E4289E87F524C18DFEF7B86EC)<br>
Complete name : Encantado’s.S01-S02.2160p.GLBO.WEB-DL.DDP5.1.Atmos.H.265-DASH\Encantado’s.S01.2160p.GLBO.WEB-DL.AAC2.0.H.265-DASH\Encantado’s.S01E01.Ô.abre.alas!.2160p.GLBO.WEB-DL.AAC2.0.H.265-DASH.mkv<br>
Format : Matroska<br>
Format version : Version 4<br>
File size : 3.09 GiB<br>
Duration : 33 min 56 s<br>
Overall bit rate : 13.0 Mb/s<br>
Frame rate : 23.976 FPS<br>
Encoded date : 2024-03-26 21:20:54 UTC<br>
Writing application : mkvmerge v82.0 ('I'm The President') 64-bit<br>
Writing library : libebml v1.4.5 + libmatroska v1.7.1<br>
<br>
Video<br>
ID : 1<br>
Format : HEVC<br>
Format/Info : High Efficiency Video Coding<br>
Format profile : Main 10@L5@Main<br>
Codec ID : V_MPEGH/ISO/HEVC<br>
Duration : 33 min 56 s<br>
Bit rate : 12.8 Mb/s<br>
Width : 3 840 pixels<br>
Height : 2 160 pixels<br>
Display aspect ratio : 16:9<br>
Frame rate mode : Constant<br>
Frame rate : 23.976 (24000/1001) FPS<br>
Color space : YUV<br>
Chroma subsampling : 4:2:0<br>
Bit depth : 10 bits<br>
Bits/(Pixel*Frame) : 0.064<br>
Stream size : 3.02 GiB (98%)<br>
Title : Portuguese<br>
Language : Portuguese<br>
Default : Yes<br>
Forced : No<br>
Color range : Limited<br>
<br>
Audio #1<br>
ID : 2<br>
Format : AAC LC<br>
Format/Info : Advanced Audio Codec Low Complexity<br>
Codec ID : A_AAC-2<br>
Duration : 33 min 56 s<br>
Bit rate : 128 kb/s<br>
Channel(s) : 2 channels<br>
Channel layout : L R<br>
Sampling rate : 44.1 kHz<br>
Frame rate : 43.066 FPS (1024 SPF)<br>
Compression mode : Lossy<br>
Stream size : 31.1 MiB (1%)<br>
Title : Portuguese<br>
Language : Portuguese<br>
Default : Yes<br>
Forced : No<br>
<br>
Audio #2<br>
ID : 3<br>
Format : AAC LC<br>
Format/Info : Advanced Audio Codec Low Complexity<br>
Codec ID : A_AAC-2<br>
Duration : 33 min 56 s<br>
Bit rate : 128 kb/s<br>
Channel(s) : 2 channels<br>
Channel layout : L R<br>
Sampling rate : 44.1 kHz<br>
Frame rate : 43.066 FPS (1024 SPF)<br>
Compression mode : Lossy<br>
Stream size : 31.1 MiB (1%)<br>
Title : Portuguese<br>
Language : Portuguese<br>
Default : No<br>
Forced : No<br>
<br>
Text #1<br>
ID : 4<br>
Format : UTF-8<br>
Codec ID : S_TEXT/UTF8<br>
Codec ID/Info : UTF-8 Plain Text<br>
Duration : 33 min 56 s<br>
Bit rate : 128 b/s<br>
Frame rate : 0.420 FPS<br>
Count of elements : 856<br>
Stream size : 31.9 KiB (0%)<br>
Title : Portuguese<br>
Language : Portuguese<br>
Default : No<br>
Forced : No<br>
<br>
Text #2<br>
ID : 5<br>
Format : UTF-8<br>
Codec ID : S_TEXT/UTF8<br>
Codec ID/Info : UTF-8 Plain Text<br>
Duration : 33 min 56 s<br>
Bit rate : 128 b/s<br>
Frame rate : 0.420 FPS<br>
Count of elements : 856<br>
Stream size : 31.9 KiB (0%)<br>
Title : Portuguese<br>
Language : Portuguese<br>
Default : No<br>
Forced : No</div>
</div><br>
<img src="https://i.imgur.com/EIC83Q5.jpeg" class="bbCodeImage LbImage" alt="[​IMG]" data-url="https://i.imgur.com/EIC83Q5.jpeg" style=""><br>
<br>
<b><span style="font-size: 22px">De dia, Olímpia cuida do supermercado. De noite, no mesmo espaço, Eraldo toca uma escola de samba. Com amor e humor, eles irão se desdobrar para harmonizar o estranho convívio.<br>
<br>
Imagens:<br>
<b><span style="font-size: 18px"><b>Temporada </b>1:</span></b></span></b><br>
<img src="https://i.imgur.com/hy2acI4.png" class="bbCodeImage LbImage" alt="[​IMG]" data-url="https://i.imgur.com/hy2acI4.png" style=""> <b><span style="font-size: 18px"><b>Temporada </b>2:<br>
<img src="https://i.imgur.com/JSrcIN0.png" class="bbCodeImage LbImage" alt="[​IMG]" data-url="https://i.imgur.com/JSrcIN0.png" style=""> </span><br>
<span style="font-size: 22px"><br>
<b><span style="font-size: 26px">Download no Mega:</span></b></span><br>
<br>
<span style="font-size: 18px"><b><span style="font-size: 18px"><b>Temporada 1</b></span></b><br>
<b><span style="font-size: 18px">
<div class="bbCodeBlock bbCodeVfcHH HiddenContent">
<div class="attribution type">Hidden Content:</div>
<blockquote>You must reply before you can see the hidden data contained here.</blockquote>
</div></span></b><br>
<b><span style="font-size: 18px"><b>Temporada 2</b></span></b><br>
<span style="font-size: 18px"><b>
<div class="bbCodeBlock bbCodeVfcHH HiddenContent">
<div class="attribution type">Hidden Content:</div>
<blockquote>You must reply before you can see the hidden data contained here.</blockquote>
</div></b></span></span></b>
<div class="messageTextEndMarker">&nbsp;</div>
</blockquote>
</article>]]></description>
                <author><![CDATA[dash]]></author>
                </item>

                </channel></rss>